<svg width="36" height="33" viewBox="0 0 36 33" fill="none" xmlns="http://www.w3.org/2000/svg">
<g filter="url(#filter0_d_388_667)">
<path d="M4.42383 1.89529C4.42383 1.27535 4.92257 0.776611 5.5425 0.776611H7.66333C8.68878 0.776611 9.59771 1.37324 10.0219 2.26818H29.1792C30.4051 2.26818 31.3 3.43347 30.9784 4.6174L29.0673 11.7163C28.6711 13.1799 27.3427 14.2007 25.8278 14.2007H12.3804L12.6321 15.5292C12.7347 16.0559 13.1961 16.4381 13.7322 16.4381H27.1703C27.7902 16.4381 28.2889 16.9368 28.2889 17.5568C28.2889 18.1767 27.7902 18.6754 27.1703 18.6754H13.7322C12.1194 18.6754 10.735 17.5288 10.4367 15.9487L8.03156 3.31694C7.99893 3.13982 7.84511 3.01397 7.66333 3.01397H5.5425C4.92257 3.01397 4.42383 2.51522 4.42383 1.89529ZM10.3901 22.4044C10.3901 22.1106 10.448 21.8196 10.5604 21.5482C10.6728 21.2767 10.8377 21.0301 11.0454 20.8223C11.2532 20.6146 11.4998 20.4498 11.7713 20.3373C12.0427 20.2249 12.3336 20.167 12.6275 20.167C12.9213 20.167 13.2122 20.2249 13.4837 20.3373C13.7551 20.4498 14.0017 20.6146 14.2095 20.8223C14.4173 21.0301 14.5821 21.2767 14.6945 21.5482C14.8069 21.8196 14.8648 22.1106 14.8648 22.4044C14.8648 22.6982 14.8069 22.9891 14.6945 23.2606C14.5821 23.532 14.4173 23.7787 14.2095 23.9864C14.0017 24.1942 13.7551 24.359 13.4837 24.4714C13.2122 24.5838 12.9213 24.6417 12.6275 24.6417C12.3336 24.6417 12.0427 24.5838 11.7713 24.4714C11.4998 24.359 11.2532 24.1942 11.0454 23.9864C10.8377 23.7787 10.6728 23.532 10.5604 23.2606C10.448 22.9891 10.3901 22.6982 10.3901 22.4044ZM26.0516 20.167C26.645 20.167 27.214 20.4027 27.6336 20.8223C28.0532 21.2419 28.2889 21.811 28.2889 22.4044C28.2889 22.9977 28.0532 23.5668 27.6336 23.9864C27.214 24.406 26.645 24.6417 26.0516 24.6417C25.4582 24.6417 24.8891 24.406 24.4695 23.9864C24.0499 23.5668 23.8142 22.9977 23.8142 22.4044C23.8142 21.811 24.0499 21.2419 24.4695 20.8223C24.8891 20.4027 25.4582 20.167 26.0516 20.167ZM16.1699 8.23446C16.1699 8.74718 16.5894 9.16669 17.1022 9.16669H19.1531V11.2176C19.1531 11.7303 19.5726 12.1498 20.0853 12.1498C20.598 12.1498 21.0175 11.7303 21.0175 11.2176V9.16669H23.0684C23.5812 9.16669 24.0007 8.74718 24.0007 8.23446C24.0007 7.72173 23.5812 7.30223 23.0684 7.30223H21.0175V5.25132C21.0175 4.73859 20.598 4.31909 20.0853 4.31909C19.5726 4.31909 19.1531 4.73859 19.1531 5.25132V7.30223H17.1022C16.5894 7.30223 16.1699 7.72173 16.1699 8.23446Z" fill="#ECB68E"/>
<path d="M4.42383 1.89529C4.42383 1.27535 4.92257 0.776611 5.5425 0.776611H7.66333C8.68878 0.776611 9.59771 1.37324 10.0219 2.26818H29.1792C30.4051 2.26818 31.3 3.43347 30.9784 4.6174L29.0673 11.7163C28.6711 13.1799 27.3427 14.2007 25.8278 14.2007H12.3804L12.6321 15.5292C12.7347 16.0559 13.1961 16.4381 13.7322 16.4381H27.1703C27.7902 16.4381 28.2889 16.9368 28.2889 17.5568C28.2889 18.1767 27.7902 18.6754 27.1703 18.6754H13.7322C12.1194 18.6754 10.735 17.5288 10.4367 15.9487L8.03156 3.31694C7.99893 3.13982 7.84511 3.01397 7.66333 3.01397H5.5425C4.92257 3.01397 4.42383 2.51522 4.42383 1.89529ZM10.3901 22.4044C10.3901 22.1106 10.448 21.8196 10.5604 21.5482C10.6728 21.2767 10.8377 21.0301 11.0454 20.8223C11.2532 20.6146 11.4998 20.4498 11.7713 20.3373C12.0427 20.2249 12.3336 20.167 12.6275 20.167C12.9213 20.167 13.2122 20.2249 13.4837 20.3373C13.7551 20.4498 14.0017 20.6146 14.2095 20.8223C14.4173 21.0301 14.5821 21.2767 14.6945 21.5482C14.8069 21.8196 14.8648 22.1106 14.8648 22.4044C14.8648 22.6982 14.8069 22.9891 14.6945 23.2606C14.5821 23.532 14.4173 23.7787 14.2095 23.9864C14.0017 24.1942 13.7551 24.359 13.4837 24.4714C13.2122 24.5838 12.9213 24.6417 12.6275 24.6417C12.3336 24.6417 12.0427 24.5838 11.7713 24.4714C11.4998 24.359 11.2532 24.1942 11.0454 23.9864C10.8377 23.7787 10.6728 23.532 10.5604 23.2606C10.448 22.9891 10.3901 22.6982 10.3901 22.4044ZM26.0516 20.167C26.645 20.167 27.214 20.4027 27.6336 20.8223C28.0532 21.2419 28.2889 21.811 28.2889 22.4044C28.2889 22.9977 28.0532 23.5668 27.6336 23.9864C27.214 24.406 26.645 24.6417 26.0516 24.6417C25.4582 24.6417 24.8891 24.406 24.4695 23.9864C24.0499 23.5668 23.8142 22.9977 23.8142 22.4044C23.8142 21.811 24.0499 21.2419 24.4695 20.8223C24.8891 20.4027 25.4582 20.167 26.0516 20.167ZM16.1699 8.23446C16.1699 8.74718 16.5894 9.16669 17.1022 9.16669H19.1531V11.2176C19.1531 11.7303 19.5726 12.1498 20.0853 12.1498C20.598 12.1498 21.0175 11.7303 21.0175 11.2176V9.16669H23.0684C23.5812 9.16669 24.0007 8.74718 24.0007 8.23446C24.0007 7.72173 23.5812 7.30223 23.0684 7.30223H21.0175V5.25132C21.0175 4.73859 20.598 4.31909 20.0853 4.31909C19.5726 4.31909 19.1531 4.73859 19.1531 5.25132V7.30223H17.1022C16.5894 7.30223 16.1699 7.72173 16.1699 8.23446Z" stroke="black"/>
</g>
<defs>
<filter id="filter0_d_388_667" x="0.423828" y="0.776611" width="34.6201" height="31.8651" filterUnits="userSpaceOnUse" color-interpolation-filters="sRGB">
<feFlood flood-opacity="0" result="BackgroundImageFix"/>
<feColorMatrix in="SourceAlpha" type="matrix" values="0 0 0 0 0 0 0 0 0 0 0 0 0 0 0 0 0 0 127 0" result="hardAlpha"/>
<feOffset dy="4"/>
<feGaussianBlur stdDeviation="2"/>
<feComposite in2="hardAlpha" operator="out"/>
<feColorMatrix type="matrix" values="0 0 0 0 0 0 0 0 0 0 0 0 0 0 0 0 0 0 0.25 0"/>
<feBlend mode="normal" in2="BackgroundImageFix" result="effect1_dropShadow_388_667"/>
<feBlend mode="normal" in="SourceGraphic" in2="effect1_dropShadow_388_667" result="shape"/>
</filter>
</defs>
</svg>
