<svg width="73" height="72" viewBox="0 0 73 72" fill="none" xmlns="http://www.w3.org/2000/svg">
<circle cx="36.4784" cy="35.9528" r="35.8163" fill="#FFF9E9"/>
<path d="M28.1928 47.6601H23.6734C23.2739 47.6601 22.8907 47.5014 22.6082 47.2189C22.3257 46.9364 22.167 46.5532 22.167 46.1537V34.1021C22.167 33.7026 22.3257 33.3194 22.6082 33.0369C22.8907 32.7544 23.2739 32.5956 23.6734 32.5956H28.1928C28.5923 32.5956 28.9755 32.7544 29.258 33.0369C29.5405 33.3194 29.6992 33.7026 29.6992 34.1021V46.1537C29.6992 46.5532 29.5405 46.9364 29.258 47.2189C28.9755 47.5014 28.5923 47.6601 28.1928 47.6601ZM38.7379 47.6601H34.2186C33.8191 47.6601 33.4359 47.5014 33.1534 47.2189C32.8709 46.9364 32.7121 46.5532 32.7121 46.1537V20.544C32.7121 20.1445 32.8709 19.7613 33.1534 19.4788C33.4359 19.1963 33.8191 19.0376 34.2186 19.0376H38.7379C39.1375 19.0376 39.5206 19.1963 39.8032 19.4788C40.0857 19.7613 40.2444 20.1445 40.2444 20.544V46.1537C40.2444 46.5532 40.0857 46.9364 39.8032 47.2189C39.5206 47.5014 39.1375 47.6601 38.7379 47.6601ZM49.2831 47.6601H44.7637C44.3642 47.6601 43.981 47.5014 43.6985 47.2189C43.416 46.9364 43.2573 46.5532 43.2573 46.1537V29.5827C43.2573 29.1832 43.416 28.8 43.6985 28.5175C43.981 28.235 44.3642 28.0763 44.7637 28.0763H49.2831C49.6826 28.0763 50.0658 28.235 50.3483 28.5175C50.6308 28.8 50.7895 29.1832 50.7895 29.5827V46.1537C50.7895 46.5532 50.6308 46.9364 50.3483 47.2189C50.0658 47.5014 49.6826 47.6601 49.2831 47.6601Z" fill="#D59B70"/>
</svg>
