<svg width="1920" height="280" viewBox="0 0 1920 280" fill="none" xmlns="http://www.w3.org/2000/svg">
<rect x="-48.9028" y="0.204102" width="2017.81" height="279.272" rx="30" fill="#FFF6D9"/>
<path d="M339.408 115.346V74.3857L343.888 78.8657H330.448V70.5457H349.776V115.346H339.408ZM376.759 116.114C373.089 116.114 369.804 115.218 366.903 113.426C364.001 111.591 361.719 108.946 360.055 105.49C358.391 102.034 357.559 97.8524 357.559 92.9457C357.559 88.039 358.391 83.8577 360.055 80.4017C361.719 76.9457 364.001 74.3217 366.903 72.5297C369.804 70.695 373.089 69.7777 376.759 69.7777C380.471 69.7777 383.756 70.695 386.615 72.5297C389.516 74.3217 391.799 76.9457 393.463 80.4017C395.127 83.8577 395.959 88.039 395.959 92.9457C395.959 97.8524 395.127 102.034 393.463 105.49C391.799 108.946 389.516 111.591 386.615 113.426C383.756 115.218 380.471 116.114 376.759 116.114ZM376.759 107.346C378.508 107.346 380.023 106.855 381.303 105.874C382.625 104.892 383.649 103.335 384.375 101.202C385.143 99.0684 385.527 96.3164 385.527 92.9457C385.527 89.575 385.143 86.823 384.375 84.6897C383.649 82.5564 382.625 80.999 381.303 80.0177C380.023 79.0364 378.508 78.5457 376.759 78.5457C375.052 78.5457 373.537 79.0364 372.215 80.0177C370.935 80.999 369.911 82.5564 369.143 84.6897C368.417 86.823 368.055 89.575 368.055 92.9457C368.055 96.3164 368.417 99.0684 369.143 101.202C369.911 103.335 370.935 104.892 372.215 105.874C373.537 106.855 375.052 107.346 376.759 107.346ZM420.196 116.114C416.527 116.114 413.242 115.218 410.34 113.426C407.439 111.591 405.156 108.946 403.492 105.49C401.828 102.034 400.996 97.8524 400.996 92.9457C400.996 88.039 401.828 83.8577 403.492 80.4017C405.156 76.9457 407.439 74.3217 410.34 72.5297C413.242 70.695 416.527 69.7777 420.196 69.7777C423.908 69.7777 427.194 70.695 430.052 72.5297C432.954 74.3217 435.236 76.9457 436.9 80.4017C438.564 83.8577 439.396 88.039 439.396 92.9457C439.396 97.8524 438.564 102.034 436.9 105.49C435.236 108.946 432.954 111.591 430.052 113.426C427.194 115.218 423.908 116.114 420.196 116.114ZM420.196 107.346C421.946 107.346 423.46 106.855 424.74 105.874C426.063 104.892 427.087 103.335 427.812 101.202C428.58 99.0684 428.964 96.3164 428.964 92.9457C428.964 89.575 428.58 86.823 427.812 84.6897C427.087 82.5564 426.063 80.999 424.74 80.0177C423.46 79.0364 421.946 78.5457 420.196 78.5457C418.49 78.5457 416.975 79.0364 415.652 80.0177C414.372 80.999 413.348 82.5564 412.58 84.6897C411.855 86.823 411.492 89.575 411.492 92.9457C411.492 96.3164 411.855 99.0684 412.58 101.202C413.348 103.335 414.372 104.892 415.652 105.874C416.975 106.855 418.49 107.346 420.196 107.346ZM457.165 107.73V78.1617H465.421V107.73H457.165ZM446.093 96.8497V89.0417H476.557V96.8497H446.093Z" fill="#5F4F3A"/>
<path d="M310.13 192.973C308.53 192.973 307.04 192.703 305.66 192.163C304.3 191.623 303.12 190.873 302.12 189.913C301.12 188.933 300.34 187.793 299.78 186.493C299.22 185.193 298.94 183.773 298.94 182.233C298.94 180.693 299.22 179.273 299.78 177.973C300.34 176.673 301.12 175.543 302.12 174.583C303.12 173.603 304.3 172.843 305.66 172.303C307.02 171.763 308.51 171.493 310.13 171.493C311.73 171.493 313.2 171.763 314.54 172.303C315.9 172.823 317.08 173.573 318.08 174.553C319.1 175.513 319.88 176.643 320.42 177.943C320.98 179.243 321.26 180.673 321.26 182.233C321.26 183.793 320.98 185.223 320.42 186.523C319.88 187.823 319.1 188.963 318.08 189.943C317.08 190.903 315.9 191.653 314.54 192.193C313.2 192.713 311.73 192.973 310.13 192.973ZM310.13 190.303C311.29 190.303 312.36 190.103 313.34 189.703C314.34 189.303 315.2 188.743 315.92 188.023C316.66 187.283 317.23 186.423 317.63 185.443C318.05 184.463 318.26 183.393 318.26 182.233C318.26 181.073 318.05 180.003 317.63 179.023C317.23 178.043 316.66 177.193 315.92 176.473C315.2 175.733 314.34 175.163 313.34 174.763C312.36 174.363 311.29 174.163 310.13 174.163C308.95 174.163 307.86 174.363 306.86 174.763C305.88 175.163 305.02 175.733 304.28 176.473C303.54 177.193 302.96 178.043 302.54 179.023C302.14 180.003 301.94 181.073 301.94 182.233C301.94 183.393 302.14 184.463 302.54 185.443C302.96 186.423 303.54 187.283 304.28 188.023C305.02 188.743 305.88 189.303 306.86 189.703C307.86 190.103 308.95 190.303 310.13 190.303ZM325.425 192.733V176.833H328.185V181.153L327.915 180.073C328.355 178.973 329.095 178.133 330.135 177.553C331.175 176.973 332.455 176.683 333.975 176.683V179.473C333.855 179.453 333.735 179.443 333.615 179.443C333.515 179.443 333.415 179.443 333.315 179.443C331.775 179.443 330.555 179.903 329.655 180.823C328.755 181.743 328.305 183.073 328.305 184.813V192.733H325.425ZM343.949 192.913C342.409 192.913 341.029 192.573 339.809 191.893C338.609 191.213 337.659 190.263 336.959 189.043C336.259 187.823 335.909 186.403 335.909 184.783C335.909 183.163 336.259 181.753 336.959 180.553C337.659 179.333 338.609 178.383 339.809 177.703C341.029 177.023 342.409 176.683 343.949 176.683C345.289 176.683 346.499 176.983 347.579 177.583C348.659 178.183 349.519 179.083 350.159 180.283C350.819 181.483 351.149 182.983 351.149 184.783C351.149 186.583 350.829 188.083 350.189 189.283C349.569 190.483 348.719 191.393 347.639 192.013C346.559 192.613 345.329 192.913 343.949 192.913ZM344.189 190.393C345.189 190.393 346.089 190.163 346.889 189.703C347.709 189.243 348.349 188.593 348.809 187.753C349.289 186.893 349.529 185.903 349.529 184.783C349.529 183.643 349.289 182.663 348.809 181.843C348.349 181.003 347.709 180.353 346.889 179.893C346.089 179.433 345.189 179.203 344.189 179.203C343.169 179.203 342.259 179.433 341.459 179.893C340.659 180.353 340.019 181.003 339.539 181.843C339.059 182.663 338.819 183.643 338.819 184.783C338.819 185.903 339.059 186.893 339.539 187.753C340.019 188.593 340.659 189.243 341.459 189.703C342.259 190.163 343.169 190.393 344.189 190.393ZM349.619 192.733V188.443L349.799 184.753L349.499 181.063V170.473H352.379V192.733H349.619ZM364.908 192.913C363.208 192.913 361.708 192.563 360.408 191.863C359.128 191.163 358.128 190.203 357.408 188.983C356.708 187.763 356.358 186.363 356.358 184.783C356.358 183.203 356.698 181.803 357.378 180.583C358.078 179.363 359.028 178.413 360.228 177.733C361.448 177.033 362.818 176.683 364.338 176.683C365.878 176.683 367.238 177.023 368.418 177.703C369.598 178.383 370.518 179.343 371.178 180.583C371.858 181.803 372.198 183.233 372.198 184.873C372.198 184.993 372.188 185.133 372.168 185.293C372.168 185.453 372.158 185.603 372.138 185.743H358.608V183.673H370.638L369.468 184.393C369.488 183.373 369.278 182.463 368.838 181.663C368.398 180.863 367.788 180.243 367.008 179.803C366.248 179.343 365.358 179.113 364.338 179.113C363.338 179.113 362.448 179.343 361.668 179.803C360.888 180.243 360.278 180.873 359.838 181.693C359.398 182.493 359.178 183.413 359.178 184.453V184.933C359.178 185.993 359.418 186.943 359.898 187.783C360.398 188.603 361.088 189.243 361.968 189.703C362.848 190.163 363.858 190.393 364.998 190.393C365.938 190.393 366.788 190.233 367.548 189.913C368.328 189.593 369.008 189.113 369.588 188.473L371.178 190.333C370.458 191.173 369.558 191.813 368.478 192.253C367.418 192.693 366.228 192.913 364.908 192.913ZM376.197 192.733V176.833H378.957V181.153L378.687 180.073C379.127 178.973 379.867 178.133 380.907 177.553C381.947 176.973 383.227 176.683 384.747 176.683V179.473C384.627 179.453 384.507 179.443 384.387 179.443C384.287 179.443 384.187 179.443 384.087 179.443C382.547 179.443 381.327 179.903 380.427 180.823C379.527 181.743 379.077 183.073 379.077 184.813V192.733H376.197ZM393.032 192.913C391.712 192.913 390.452 192.733 389.252 192.373C388.072 192.013 387.142 191.573 386.462 191.053L387.662 188.773C388.342 189.233 389.182 189.623 390.182 189.943C391.182 190.263 392.202 190.423 393.242 190.423C394.582 190.423 395.542 190.233 396.122 189.853C396.722 189.473 397.022 188.943 397.022 188.263C397.022 187.763 396.842 187.373 396.482 187.093C396.122 186.813 395.642 186.603 395.042 186.463C394.462 186.323 393.812 186.203 393.092 186.103C392.372 185.983 391.652 185.843 390.932 185.683C390.212 185.503 389.552 185.263 388.952 184.963C388.352 184.643 387.872 184.213 387.512 183.673C387.152 183.113 386.972 182.373 386.972 181.453C386.972 180.493 387.242 179.653 387.782 178.933C388.322 178.213 389.082 177.663 390.062 177.283C391.062 176.883 392.242 176.683 393.602 176.683C394.642 176.683 395.692 176.813 396.752 177.073C397.832 177.313 398.712 177.663 399.392 178.123L398.162 180.403C397.442 179.923 396.692 179.593 395.912 179.413C395.132 179.233 394.352 179.143 393.572 179.143C392.312 179.143 391.372 179.353 390.752 179.773C390.132 180.173 389.822 180.693 389.822 181.333C389.822 181.873 390.002 182.293 390.362 182.593C390.742 182.873 391.222 183.093 391.802 183.253C392.402 183.413 393.062 183.553 393.782 183.673C394.502 183.773 395.222 183.913 395.942 184.093C396.662 184.253 397.312 184.483 397.892 184.783C398.492 185.083 398.972 185.503 399.332 186.043C399.712 186.583 399.902 187.303 399.902 188.203C399.902 189.163 399.622 189.993 399.062 190.693C398.502 191.393 397.712 191.943 396.692 192.343C395.672 192.723 394.452 192.913 393.032 192.913ZM399.932 195.733L409.832 167.473H412.442L402.542 195.733H399.932ZM431.917 176.683C433.197 176.683 434.327 176.933 435.307 177.433C436.287 177.933 437.047 178.693 437.587 179.713C438.147 180.733 438.427 182.023 438.427 183.583V192.733H435.547V183.913C435.547 182.373 435.187 181.213 434.467 180.433C433.747 179.653 432.737 179.263 431.437 179.263C430.477 179.263 429.637 179.463 428.917 179.863C428.197 180.263 427.637 180.853 427.237 181.633C426.857 182.413 426.667 183.383 426.667 184.543V192.733H423.787V183.913C423.787 182.373 423.427 181.213 422.707 180.433C422.007 179.653 420.997 179.263 419.677 179.263C418.737 179.263 417.907 179.463 417.187 179.863C416.467 180.263 415.907 180.853 415.507 181.633C415.107 182.413 414.907 183.383 414.907 184.543V192.733H412.027V176.833H414.787V181.063L414.337 179.983C414.837 178.943 415.607 178.133 416.647 177.553C417.687 176.973 418.897 176.683 420.277 176.683C421.797 176.683 423.107 177.063 424.207 177.823C425.307 178.563 426.027 179.693 426.367 181.213L425.197 180.733C425.677 179.513 426.517 178.533 427.717 177.793C428.917 177.053 430.317 176.683 431.917 176.683ZM450.536 192.913C448.936 192.913 447.516 192.563 446.276 191.863C445.036 191.163 444.056 190.203 443.336 188.983C442.616 187.743 442.256 186.343 442.256 184.783C442.256 183.203 442.616 181.803 443.336 180.583C444.056 179.363 445.036 178.413 446.276 177.733C447.516 177.033 448.936 176.683 450.536 176.683C452.116 176.683 453.526 177.033 454.766 177.733C456.026 178.413 457.006 179.363 457.706 180.583C458.426 181.783 458.786 183.183 458.786 184.783C458.786 186.363 458.426 187.763 457.706 188.983C457.006 190.203 456.026 191.163 454.766 191.863C453.526 192.563 452.116 192.913 450.536 192.913ZM450.536 190.393C451.556 190.393 452.466 190.163 453.266 189.703C454.086 189.243 454.726 188.593 455.186 187.753C455.646 186.893 455.876 185.903 455.876 184.783C455.876 183.643 455.646 182.663 455.186 181.843C454.726 181.003 454.086 180.353 453.266 179.893C452.466 179.433 451.556 179.203 450.536 179.203C449.516 179.203 448.606 179.433 447.806 179.893C447.006 180.353 446.366 181.003 445.886 181.843C445.406 182.663 445.166 183.643 445.166 184.783C445.166 185.903 445.406 186.893 445.886 187.753C446.366 188.593 447.006 189.243 447.806 189.703C448.606 190.163 449.516 190.393 450.536 190.393ZM471.259 176.683C472.559 176.683 473.699 176.933 474.679 177.433C475.679 177.933 476.459 178.693 477.019 179.713C477.579 180.733 477.859 182.023 477.859 183.583V192.733H474.979V183.913C474.979 182.373 474.599 181.213 473.839 180.433C473.099 179.653 472.049 179.263 470.689 179.263C469.669 179.263 468.779 179.463 468.019 179.863C467.259 180.263 466.669 180.853 466.249 181.633C465.849 182.413 465.649 183.383 465.649 184.543V192.733H462.769V176.833H465.529V181.123L465.079 179.983C465.599 178.943 466.399 178.133 467.479 177.553C468.559 176.973 469.819 176.683 471.259 176.683ZM488.649 192.913C487.049 192.913 485.809 192.483 484.929 191.623C484.049 190.763 483.609 189.533 483.609 187.933V173.353H486.489V187.813C486.489 188.673 486.699 189.333 487.119 189.793C487.559 190.253 488.179 190.483 488.979 190.483C489.879 190.483 490.629 190.233 491.229 189.733L492.129 191.803C491.689 192.183 491.159 192.463 490.539 192.643C489.939 192.823 489.309 192.913 488.649 192.913ZM480.909 179.203V176.833H491.049V179.203H480.909ZM504.101 176.683C505.401 176.683 506.541 176.933 507.521 177.433C508.521 177.933 509.301 178.693 509.861 179.713C510.421 180.733 510.701 182.023 510.701 183.583V192.733H507.821V183.913C507.821 182.373 507.441 181.213 506.681 180.433C505.941 179.653 504.891 179.263 503.531 179.263C502.511 179.263 501.621 179.463 500.861 179.863C500.101 180.263 499.511 180.853 499.091 181.633C498.691 182.413 498.491 183.383 498.491 184.543V192.733H495.611V170.473H498.491V181.123L497.921 179.983C498.441 178.943 499.241 178.133 500.321 177.553C501.401 176.973 502.661 176.683 504.101 176.683Z" fill="#5F4F3A"/>
<path d="M730.189 105.938V98.9617L751.309 70.5457H762.189L741.517 98.9617L736.461 97.4897H771.725V105.938H730.189ZM754.317 115.346V105.938L754.637 97.4897V89.1057H764.429V115.346H754.317ZM781.964 115.858C780.257 115.858 778.785 115.282 777.548 114.13C776.353 112.935 775.756 111.42 775.756 109.586C775.756 107.751 776.353 106.279 777.548 105.17C778.785 104.018 780.257 103.442 781.964 103.442C783.713 103.442 785.185 104.018 786.38 105.17C787.574 106.279 788.172 107.751 788.172 109.586C788.172 111.42 787.574 112.935 786.38 114.13C785.185 115.282 783.713 115.858 781.964 115.858ZM808.57 69.7777C812.708 69.7777 816.271 70.631 819.258 72.3377C822.244 74.0444 824.548 76.5404 826.17 79.8257C827.791 83.0684 828.602 87.1217 828.602 91.9857C828.602 97.1484 827.62 101.522 825.658 105.106C823.738 108.69 821.071 111.42 817.658 113.298C814.244 115.175 810.276 116.114 805.754 116.114C803.407 116.114 801.146 115.858 798.97 115.346C796.794 114.834 794.916 114.066 793.338 113.042L797.178 105.426C798.415 106.279 799.738 106.876 801.146 107.218C802.554 107.516 804.026 107.666 805.562 107.666C809.402 107.666 812.452 106.492 814.714 104.146C817.018 101.799 818.17 98.3217 818.17 93.7137C818.17 92.9457 818.148 92.0924 818.106 91.1537C818.063 90.215 817.956 89.2764 817.786 88.3377L820.602 91.0257C819.876 92.6897 818.852 94.0977 817.53 95.2497C816.207 96.359 814.671 97.2124 812.922 97.8097C811.172 98.3644 809.21 98.6417 807.034 98.6417C804.175 98.6417 801.572 98.0657 799.226 96.9137C796.922 95.7617 795.066 94.1404 793.658 92.0497C792.292 89.959 791.61 87.5057 791.61 84.6897C791.61 81.6177 792.356 78.9724 793.85 76.7537C795.386 74.535 797.434 72.8284 799.994 71.6337C802.596 70.3964 805.455 69.7777 808.57 69.7777ZM809.21 77.5217C807.716 77.5217 806.415 77.799 805.306 78.3537C804.196 78.8657 803.322 79.6337 802.682 80.6577C802.042 81.639 801.722 82.8124 801.722 84.1777C801.722 86.2257 802.404 87.8684 803.77 89.1057C805.178 90.3004 807.034 90.8977 809.338 90.8977C810.831 90.8977 812.154 90.6204 813.306 90.0657C814.5 89.4684 815.418 88.6577 816.058 87.6337C816.698 86.6097 817.018 85.4577 817.018 84.1777C817.018 82.8977 816.698 81.767 816.058 80.7857C815.46 79.7617 814.586 78.9724 813.434 78.4177C812.282 77.8204 810.874 77.5217 809.21 77.5217Z" fill="#5F4F3A"/>
<path d="M691.335 192.973C689.715 192.973 688.225 192.713 686.865 192.193C685.505 191.653 684.325 190.903 683.325 189.943C682.325 188.963 681.545 187.823 680.985 186.523C680.425 185.223 680.145 183.793 680.145 182.233C680.145 180.673 680.425 179.243 680.985 177.943C681.545 176.643 682.325 175.513 683.325 174.553C684.345 173.573 685.535 172.823 686.895 172.303C688.255 171.763 689.755 171.493 691.395 171.493C693.055 171.493 694.575 171.763 695.955 172.303C697.335 172.843 698.505 173.653 699.465 174.733L697.605 176.593C696.745 175.753 695.805 175.143 694.785 174.763C693.785 174.363 692.695 174.163 691.515 174.163C690.315 174.163 689.195 174.363 688.155 174.763C687.135 175.163 686.245 175.723 685.485 176.443C684.745 177.163 684.165 178.023 683.745 179.023C683.345 180.003 683.145 181.073 683.145 182.233C683.145 183.373 683.345 184.443 683.745 185.443C684.165 186.423 684.745 187.283 685.485 188.023C686.245 188.743 687.135 189.303 688.155 189.703C689.175 190.103 690.285 190.303 691.485 190.303C692.605 190.303 693.675 190.133 694.695 189.793C695.735 189.433 696.695 188.843 697.575 188.023L699.285 190.303C698.245 191.183 697.025 191.853 695.625 192.313C694.245 192.753 692.815 192.973 691.335 192.973ZM696.405 189.913V182.113H699.285V190.303L696.405 189.913ZM711.418 192.913C709.818 192.913 708.398 192.563 707.158 191.863C705.918 191.163 704.938 190.203 704.218 188.983C703.498 187.743 703.138 186.343 703.138 184.783C703.138 183.203 703.498 181.803 704.218 180.583C704.938 179.363 705.918 178.413 707.158 177.733C708.398 177.033 709.818 176.683 711.418 176.683C712.998 176.683 714.408 177.033 715.648 177.733C716.908 178.413 717.888 179.363 718.588 180.583C719.308 181.783 719.668 183.183 719.668 184.783C719.668 186.363 719.308 187.763 718.588 188.983C717.888 190.203 716.908 191.163 715.648 191.863C714.408 192.563 712.998 192.913 711.418 192.913ZM711.418 190.393C712.438 190.393 713.348 190.163 714.148 189.703C714.968 189.243 715.608 188.593 716.068 187.753C716.528 186.893 716.758 185.903 716.758 184.783C716.758 183.643 716.528 182.663 716.068 181.843C715.608 181.003 714.968 180.353 714.148 179.893C713.348 179.433 712.438 179.203 711.418 179.203C710.398 179.203 709.488 179.433 708.688 179.893C707.888 180.353 707.248 181.003 706.768 181.843C706.288 182.663 706.048 183.643 706.048 184.783C706.048 185.903 706.288 186.893 706.768 187.753C707.248 188.593 707.888 189.243 708.688 189.703C709.488 190.163 710.398 190.393 711.418 190.393ZM730.461 192.913C728.861 192.913 727.441 192.563 726.201 191.863C724.961 191.163 723.981 190.203 723.261 188.983C722.541 187.743 722.181 186.343 722.181 184.783C722.181 183.203 722.541 181.803 723.261 180.583C723.981 179.363 724.961 178.413 726.201 177.733C727.441 177.033 728.861 176.683 730.461 176.683C732.041 176.683 733.451 177.033 734.691 177.733C735.951 178.413 736.931 179.363 737.631 180.583C738.351 181.783 738.711 183.183 738.711 184.783C738.711 186.363 738.351 187.763 737.631 188.983C736.931 190.203 735.951 191.163 734.691 191.863C733.451 192.563 732.041 192.913 730.461 192.913ZM730.461 190.393C731.481 190.393 732.391 190.163 733.191 189.703C734.011 189.243 734.651 188.593 735.111 187.753C735.571 186.893 735.801 185.903 735.801 184.783C735.801 183.643 735.571 182.663 735.111 181.843C734.651 181.003 734.011 180.353 733.191 179.893C732.391 179.433 731.481 179.203 730.461 179.203C729.441 179.203 728.531 179.433 727.731 179.893C726.931 180.353 726.291 181.003 725.811 181.843C725.331 182.663 725.091 183.643 725.091 184.783C725.091 185.903 725.331 186.893 725.811 187.753C726.291 188.593 726.931 189.243 727.731 189.703C728.531 190.163 729.441 190.393 730.461 190.393ZM749.654 198.733C748.194 198.733 746.774 198.523 745.394 198.103C744.034 197.703 742.924 197.123 742.064 196.363L743.444 194.143C744.184 194.783 745.094 195.283 746.174 195.643C747.254 196.023 748.384 196.213 749.564 196.213C751.444 196.213 752.824 195.773 753.704 194.893C754.584 194.013 755.024 192.673 755.024 190.873V187.513L755.324 184.363L755.174 181.183V176.833H757.904V190.573C757.904 193.373 757.204 195.433 755.804 196.753C754.404 198.073 752.354 198.733 749.654 198.733ZM749.294 192.073C747.754 192.073 746.374 191.753 745.154 191.113C743.954 190.453 742.994 189.543 742.274 188.383C741.574 187.223 741.224 185.883 741.224 184.363C741.224 182.823 741.574 181.483 742.274 180.343C742.994 179.183 743.954 178.283 745.154 177.643C746.374 177.003 747.754 176.683 749.294 176.683C750.654 176.683 751.894 176.963 753.014 177.523C754.134 178.063 755.024 178.903 755.684 180.043C756.364 181.183 756.704 182.623 756.704 184.363C756.704 186.083 756.364 187.513 755.684 188.653C755.024 189.793 754.134 190.653 753.014 191.233C751.894 191.793 750.654 192.073 749.294 192.073ZM749.624 189.553C750.684 189.553 751.624 189.333 752.444 188.893C753.264 188.453 753.904 187.843 754.364 187.063C754.844 186.283 755.084 185.383 755.084 184.363C755.084 183.343 754.844 182.443 754.364 181.663C753.904 180.883 753.264 180.283 752.444 179.863C751.624 179.423 750.684 179.203 749.624 179.203C748.564 179.203 747.614 179.423 746.774 179.863C745.954 180.283 745.304 180.883 744.824 181.663C744.364 182.443 744.134 183.343 744.134 184.363C744.134 185.383 744.364 186.283 744.824 187.063C745.304 187.843 745.954 188.453 746.774 188.893C747.614 189.333 748.564 189.553 749.624 189.553ZM763.407 192.733V170.473H766.287V192.733H763.407ZM778.866 192.913C777.166 192.913 775.666 192.563 774.366 191.863C773.086 191.163 772.086 190.203 771.366 188.983C770.666 187.763 770.316 186.363 770.316 184.783C770.316 183.203 770.656 181.803 771.336 180.583C772.036 179.363 772.986 178.413 774.186 177.733C775.406 177.033 776.776 176.683 778.296 176.683C779.836 176.683 781.196 177.023 782.376 177.703C783.556 178.383 784.476 179.343 785.136 180.583C785.816 181.803 786.156 183.233 786.156 184.873C786.156 184.993 786.146 185.133 786.126 185.293C786.126 185.453 786.116 185.603 786.096 185.743H772.566V183.673H784.596L783.426 184.393C783.446 183.373 783.236 182.463 782.796 181.663C782.356 180.863 781.746 180.243 780.966 179.803C780.206 179.343 779.316 179.113 778.296 179.113C777.296 179.113 776.406 179.343 775.626 179.803C774.846 180.243 774.236 180.873 773.796 181.693C773.356 182.493 773.136 183.413 773.136 184.453V184.933C773.136 185.993 773.376 186.943 773.856 187.783C774.356 188.603 775.046 189.243 775.926 189.703C776.806 190.163 777.816 190.393 778.956 190.393C779.896 190.393 780.746 190.233 781.506 189.913C782.286 189.593 782.966 189.113 783.546 188.473L785.136 190.333C784.416 191.173 783.516 191.813 782.436 192.253C781.376 192.693 780.186 192.913 778.866 192.913ZM804.752 192.973C803.152 192.973 801.622 192.733 800.162 192.253C798.702 191.753 797.552 191.113 796.712 190.333L797.822 187.993C798.622 188.693 799.642 189.273 800.882 189.733C802.122 190.193 803.412 190.423 804.752 190.423C805.972 190.423 806.962 190.283 807.722 190.003C808.482 189.723 809.042 189.343 809.402 188.863C809.762 188.363 809.942 187.803 809.942 187.183C809.942 186.463 809.702 185.883 809.222 185.443C808.762 185.003 808.152 184.653 807.392 184.393C806.652 184.113 805.832 183.873 804.932 183.673C804.032 183.473 803.122 183.243 802.202 182.983C801.302 182.703 800.472 182.353 799.712 181.933C798.972 181.513 798.372 180.953 797.912 180.253C797.452 179.533 797.222 178.613 797.222 177.493C797.222 176.413 797.502 175.423 798.062 174.523C798.642 173.603 799.522 172.873 800.702 172.333C801.902 171.773 803.422 171.493 805.262 171.493C806.482 171.493 807.692 171.653 808.892 171.973C810.092 172.293 811.132 172.753 812.012 173.353L811.022 175.753C810.122 175.153 809.172 174.723 808.172 174.463C807.172 174.183 806.202 174.043 805.262 174.043C804.082 174.043 803.112 174.193 802.352 174.493C801.592 174.793 801.032 175.193 800.672 175.693C800.332 176.193 800.162 176.753 800.162 177.373C800.162 178.113 800.392 178.703 800.852 179.143C801.332 179.583 801.942 179.933 802.682 180.193C803.442 180.453 804.272 180.693 805.172 180.913C806.072 181.113 806.972 181.343 807.872 181.603C808.792 181.863 809.622 182.203 810.362 182.623C811.122 183.043 811.732 183.603 812.192 184.303C812.652 185.003 812.882 185.903 812.882 187.003C812.882 188.063 812.592 189.053 812.012 189.973C811.432 190.873 810.532 191.603 809.312 192.163C808.112 192.703 806.592 192.973 804.752 192.973ZM823.775 192.913C822.155 192.913 820.705 192.563 819.425 191.863C818.165 191.163 817.175 190.203 816.455 188.983C815.735 187.763 815.375 186.363 815.375 184.783C815.375 183.203 815.735 181.803 816.455 180.583C817.175 179.363 818.165 178.413 819.425 177.733C820.705 177.033 822.155 176.683 823.775 176.683C825.215 176.683 826.495 176.973 827.615 177.553C828.755 178.113 829.635 178.953 830.255 180.073L828.065 181.483C827.545 180.703 826.905 180.133 826.145 179.773C825.405 179.393 824.605 179.203 823.745 179.203C822.705 179.203 821.775 179.433 820.955 179.893C820.135 180.353 819.485 181.003 819.005 181.843C818.525 182.663 818.285 183.643 818.285 184.783C818.285 185.923 818.525 186.913 819.005 187.753C819.485 188.593 820.135 189.243 820.955 189.703C821.775 190.163 822.705 190.393 823.745 190.393C824.605 190.393 825.405 190.213 826.145 189.853C826.905 189.473 827.545 188.893 828.065 188.113L830.255 189.493C829.635 190.593 828.755 191.443 827.615 192.043C826.495 192.623 825.215 192.913 823.775 192.913ZM840.559 192.913C838.959 192.913 837.539 192.563 836.299 191.863C835.059 191.163 834.079 190.203 833.359 188.983C832.639 187.743 832.279 186.343 832.279 184.783C832.279 183.203 832.639 181.803 833.359 180.583C834.079 179.363 835.059 178.413 836.299 177.733C837.539 177.033 838.959 176.683 840.559 176.683C842.139 176.683 843.549 177.033 844.789 177.733C846.049 178.413 847.029 179.363 847.729 180.583C848.449 181.783 848.809 183.183 848.809 184.783C848.809 186.363 848.449 187.763 847.729 188.983C847.029 190.203 846.049 191.163 844.789 191.863C843.549 192.563 842.139 192.913 840.559 192.913ZM840.559 190.393C841.579 190.393 842.489 190.163 843.289 189.703C844.109 189.243 844.749 188.593 845.209 187.753C845.669 186.893 845.899 185.903 845.899 184.783C845.899 183.643 845.669 182.663 845.209 181.843C844.749 181.003 844.109 180.353 843.289 179.893C842.489 179.433 841.579 179.203 840.559 179.203C839.539 179.203 838.629 179.433 837.829 179.893C837.029 180.353 836.389 181.003 835.909 181.843C835.429 182.663 835.189 183.643 835.189 184.783C835.189 185.903 835.429 186.893 835.909 187.753C836.389 188.593 837.029 189.243 837.829 189.703C838.629 190.163 839.539 190.393 840.559 190.393ZM852.792 192.733V176.833H855.552V181.153L855.282 180.073C855.722 178.973 856.462 178.133 857.502 177.553C858.542 176.973 859.822 176.683 861.342 176.683V179.473C861.222 179.453 861.102 179.443 860.982 179.443C860.882 179.443 860.782 179.443 860.682 179.443C859.142 179.443 857.922 179.903 857.022 180.823C856.122 181.743 855.672 183.073 855.672 184.813V192.733H852.792ZM871.825 192.913C870.125 192.913 868.625 192.563 867.325 191.863C866.045 191.163 865.045 190.203 864.325 188.983C863.625 187.763 863.275 186.363 863.275 184.783C863.275 183.203 863.615 181.803 864.295 180.583C864.995 179.363 865.945 178.413 867.145 177.733C868.365 177.033 869.735 176.683 871.255 176.683C872.795 176.683 874.155 177.023 875.335 177.703C876.515 178.383 877.435 179.343 878.095 180.583C878.775 181.803 879.115 183.233 879.115 184.873C879.115 184.993 879.105 185.133 879.085 185.293C879.085 185.453 879.075 185.603 879.055 185.743H865.525V183.673H877.555L876.385 184.393C876.405 183.373 876.195 182.463 875.755 181.663C875.315 180.863 874.705 180.243 873.925 179.803C873.165 179.343 872.275 179.113 871.255 179.113C870.255 179.113 869.365 179.343 868.585 179.803C867.805 180.243 867.195 180.873 866.755 181.693C866.315 182.493 866.095 183.413 866.095 184.453V184.933C866.095 185.993 866.335 186.943 866.815 187.783C867.315 188.603 868.005 189.243 868.885 189.703C869.765 190.163 870.775 190.393 871.915 190.393C872.855 190.393 873.705 190.233 874.465 189.913C875.245 189.593 875.925 189.113 876.505 188.473L878.095 190.333C877.375 191.173 876.475 191.813 875.395 192.253C874.335 192.693 873.145 192.913 871.825 192.913Z" fill="#5F4F3A" fill-opacity="0.5"/>
<path d="M1108.06 69.7777C1112.2 69.7777 1115.76 70.631 1118.75 72.3377C1121.73 74.0444 1124.04 76.5404 1125.66 79.8257C1127.28 83.0684 1128.09 87.1217 1128.09 91.9857C1128.09 97.1484 1127.11 101.522 1125.15 105.106C1123.23 108.69 1120.56 111.42 1117.15 113.298C1113.73 115.175 1109.77 116.114 1105.24 116.114C1102.9 116.114 1100.63 115.858 1098.46 115.346C1096.28 114.834 1094.41 114.066 1092.83 113.042L1096.67 105.426C1097.9 106.279 1099.23 106.876 1100.63 107.218C1102.04 107.516 1103.51 107.666 1105.05 107.666C1108.89 107.666 1111.94 106.492 1114.2 104.146C1116.51 101.799 1117.66 98.3217 1117.66 93.7137C1117.66 92.9457 1117.64 92.0924 1117.59 91.1537C1117.55 90.215 1117.45 89.2764 1117.27 88.3377L1120.09 91.0257C1119.37 92.6897 1118.34 94.0977 1117.02 95.2497C1115.7 96.359 1114.16 97.2124 1112.41 97.8097C1110.66 98.3644 1108.7 98.6417 1106.52 98.6417C1103.66 98.6417 1101.06 98.0657 1098.71 96.9137C1096.41 95.7617 1094.55 94.1404 1093.15 92.0497C1091.78 89.959 1091.1 87.5057 1091.1 84.6897C1091.1 81.6177 1091.85 78.9724 1093.34 76.7537C1094.87 74.535 1096.92 72.8284 1099.48 71.6337C1102.09 70.3964 1104.94 69.7777 1108.06 69.7777ZM1108.7 77.5217C1107.21 77.5217 1105.9 77.799 1104.79 78.3537C1103.69 78.8657 1102.81 79.6337 1102.17 80.6577C1101.53 81.639 1101.21 82.8124 1101.21 84.1777C1101.21 86.2257 1101.89 87.8684 1103.26 89.1057C1104.67 90.3004 1106.52 90.8977 1108.83 90.8977C1110.32 90.8977 1111.64 90.6204 1112.79 90.0657C1113.99 89.4684 1114.91 88.6577 1115.55 87.6337C1116.19 86.6097 1116.51 85.4577 1116.51 84.1777C1116.51 82.8977 1116.19 81.767 1115.55 80.7857C1114.95 79.7617 1114.07 78.9724 1112.92 78.4177C1111.77 77.8204 1110.36 77.5217 1108.7 77.5217ZM1152.26 116.114C1148.6 116.114 1145.31 115.218 1142.41 113.426C1139.51 111.591 1137.22 108.946 1135.56 105.49C1133.9 102.034 1133.06 97.8524 1133.06 92.9457C1133.06 88.039 1133.9 83.8577 1135.56 80.4017C1137.22 76.9457 1139.51 74.3217 1142.41 72.5297C1145.31 70.695 1148.6 69.7777 1152.26 69.7777C1155.98 69.7777 1159.26 70.695 1162.12 72.5297C1165.02 74.3217 1167.3 76.9457 1168.97 80.4017C1170.63 83.8577 1171.46 88.039 1171.46 92.9457C1171.46 97.8524 1170.63 102.034 1168.97 105.49C1167.3 108.946 1165.02 111.591 1162.12 113.426C1159.26 115.218 1155.98 116.114 1152.26 116.114ZM1152.26 107.346C1154.01 107.346 1155.53 106.855 1156.81 105.874C1158.13 104.892 1159.16 103.335 1159.88 101.202C1160.65 99.0684 1161.03 96.3164 1161.03 92.9457C1161.03 89.575 1160.65 86.823 1159.88 84.6897C1159.16 82.5564 1158.13 80.999 1156.81 80.0177C1155.53 79.0364 1154.01 78.5457 1152.26 78.5457C1150.56 78.5457 1149.04 79.0364 1147.72 80.0177C1146.44 80.999 1145.42 82.5564 1144.65 84.6897C1143.92 86.823 1143.56 89.575 1143.56 92.9457C1143.56 96.3164 1143.92 99.0684 1144.65 101.202C1145.42 103.335 1146.44 104.892 1147.72 105.874C1149.04 106.855 1150.56 107.346 1152.26 107.346ZM1189.23 107.73V78.1617H1197.49V107.73H1189.23ZM1178.16 96.8497V89.0417H1208.63V96.8497H1178.16Z" fill="#5F4F3A"/>
<path d="M1084.58 175.733V154.733H1092.77C1094.61 154.733 1096.18 155.023 1097.48 155.603C1098.78 156.183 1099.78 157.023 1100.48 158.123C1101.18 159.223 1101.53 160.533 1101.53 162.053C1101.53 163.573 1101.18 164.883 1100.48 165.983C1099.78 167.063 1098.78 167.893 1097.48 168.473C1096.18 169.053 1094.61 169.343 1092.77 169.343H1086.23L1087.58 167.963V175.733H1084.58ZM1098.62 175.733L1093.28 168.113H1096.49L1101.89 175.733H1098.62ZM1087.58 168.263L1086.23 166.793H1092.68C1094.6 166.793 1096.05 166.383 1097.03 165.563C1098.03 164.723 1098.53 163.553 1098.53 162.053C1098.53 160.553 1098.03 159.393 1097.03 158.573C1096.05 157.753 1094.6 157.343 1092.68 157.343H1086.23L1087.58 155.843V168.263ZM1113.04 175.913C1111.34 175.913 1109.84 175.563 1108.54 174.863C1107.26 174.163 1106.26 173.203 1105.54 171.983C1104.84 170.763 1104.49 169.363 1104.49 167.783C1104.49 166.203 1104.83 164.803 1105.51 163.583C1106.21 162.363 1107.16 161.413 1108.36 160.733C1109.58 160.033 1110.95 159.683 1112.47 159.683C1114.01 159.683 1115.37 160.023 1116.55 160.703C1117.73 161.383 1118.65 162.343 1119.31 163.583C1119.99 164.803 1120.33 166.233 1120.33 167.873C1120.33 167.993 1120.32 168.133 1120.3 168.293C1120.3 168.453 1120.29 168.603 1120.27 168.743H1106.74V166.673H1118.77L1117.6 167.393C1117.62 166.373 1117.41 165.463 1116.97 164.663C1116.53 163.863 1115.92 163.243 1115.14 162.803C1114.38 162.343 1113.49 162.113 1112.47 162.113C1111.47 162.113 1110.58 162.343 1109.8 162.803C1109.02 163.243 1108.41 163.873 1107.97 164.693C1107.53 165.493 1107.31 166.413 1107.31 167.453V167.933C1107.31 168.993 1107.55 169.943 1108.03 170.783C1108.53 171.603 1109.22 172.243 1110.1 172.703C1110.98 173.163 1111.99 173.393 1113.13 173.393C1114.07 173.393 1114.92 173.233 1115.68 172.913C1116.46 172.593 1117.14 172.113 1117.72 171.473L1119.31 173.333C1118.59 174.173 1117.69 174.813 1116.61 175.253C1115.55 175.693 1114.36 175.913 1113.04 175.913ZM1131.26 175.913C1129.64 175.913 1128.19 175.563 1126.91 174.863C1125.65 174.163 1124.66 173.203 1123.94 171.983C1123.22 170.763 1122.86 169.363 1122.86 167.783C1122.86 166.203 1123.22 164.803 1123.94 163.583C1124.66 162.363 1125.65 161.413 1126.91 160.733C1128.19 160.033 1129.64 159.683 1131.26 159.683C1132.7 159.683 1133.98 159.973 1135.1 160.553C1136.24 161.113 1137.12 161.953 1137.74 163.073L1135.55 164.483C1135.03 163.703 1134.39 163.133 1133.63 162.773C1132.89 162.393 1132.09 162.203 1131.23 162.203C1130.19 162.203 1129.26 162.433 1128.44 162.893C1127.62 163.353 1126.97 164.003 1126.49 164.843C1126.01 165.663 1125.77 166.643 1125.77 167.783C1125.77 168.923 1126.01 169.913 1126.49 170.753C1126.97 171.593 1127.62 172.243 1128.44 172.703C1129.26 173.163 1130.19 173.393 1131.23 173.393C1132.09 173.393 1132.89 173.213 1133.63 172.853C1134.39 172.473 1135.03 171.893 1135.55 171.113L1137.74 172.493C1137.12 173.593 1136.24 174.443 1135.1 175.043C1133.98 175.623 1132.7 175.913 1131.26 175.913ZM1148.31 175.913C1146.61 175.913 1145.11 175.563 1143.81 174.863C1142.53 174.163 1141.53 173.203 1140.81 171.983C1140.11 170.763 1139.76 169.363 1139.76 167.783C1139.76 166.203 1140.1 164.803 1140.78 163.583C1141.48 162.363 1142.43 161.413 1143.63 160.733C1144.85 160.033 1146.22 159.683 1147.74 159.683C1149.28 159.683 1150.64 160.023 1151.82 160.703C1153 161.383 1153.92 162.343 1154.58 163.583C1155.26 164.803 1155.6 166.233 1155.6 167.873C1155.6 167.993 1155.59 168.133 1155.57 168.293C1155.57 168.453 1155.56 168.603 1155.54 168.743H1142.01V166.673H1154.04L1152.87 167.393C1152.89 166.373 1152.68 165.463 1152.24 164.663C1151.8 163.863 1151.19 163.243 1150.41 162.803C1149.65 162.343 1148.76 162.113 1147.74 162.113C1146.74 162.113 1145.85 162.343 1145.07 162.803C1144.29 163.243 1143.68 163.873 1143.24 164.693C1142.8 165.493 1142.58 166.413 1142.58 167.453V167.933C1142.58 168.993 1142.82 169.943 1143.3 170.783C1143.8 171.603 1144.49 172.243 1145.37 172.703C1146.25 173.163 1147.26 173.393 1148.4 173.393C1149.34 173.393 1150.19 173.233 1150.95 172.913C1151.73 172.593 1152.41 172.113 1152.99 171.473L1154.58 173.333C1153.86 174.173 1152.96 174.813 1151.88 175.253C1150.82 175.693 1149.63 175.913 1148.31 175.913ZM1159.6 175.733V159.833H1162.48V175.733H1159.6ZM1161.04 156.773C1160.48 156.773 1160.01 156.593 1159.63 156.233C1159.27 155.873 1159.09 155.433 1159.09 154.913C1159.09 154.373 1159.27 153.923 1159.63 153.563C1160.01 153.203 1160.48 153.023 1161.04 153.023C1161.6 153.023 1162.06 153.203 1162.42 153.563C1162.8 153.903 1162.99 154.333 1162.99 154.853C1162.99 155.393 1162.81 155.853 1162.45 156.233C1162.09 156.593 1161.62 156.773 1161.04 156.773ZM1176.41 175.913C1175.09 175.913 1173.88 175.613 1172.78 175.013C1171.7 174.393 1170.83 173.483 1170.17 172.283C1169.53 171.083 1169.21 169.583 1169.21 167.783C1169.21 165.983 1169.52 164.483 1170.14 163.283C1170.78 162.083 1171.64 161.183 1172.72 160.583C1173.82 159.983 1175.05 159.683 1176.41 159.683C1177.97 159.683 1179.35 160.023 1180.55 160.703C1181.75 161.383 1182.7 162.333 1183.4 163.553C1184.1 164.753 1184.45 166.163 1184.45 167.783C1184.45 169.403 1184.1 170.823 1183.4 172.043C1182.7 173.263 1181.75 174.213 1180.55 174.893C1179.35 175.573 1177.97 175.913 1176.41 175.913ZM1167.98 181.553V159.833H1170.74V164.123L1170.56 167.813L1170.86 171.503V181.553H1167.98ZM1176.17 173.393C1177.19 173.393 1178.1 173.163 1178.9 172.703C1179.72 172.243 1180.36 171.593 1180.82 170.753C1181.3 169.893 1181.54 168.903 1181.54 167.783C1181.54 166.643 1181.3 165.663 1180.82 164.843C1180.36 164.003 1179.72 163.353 1178.9 162.893C1178.1 162.433 1177.19 162.203 1176.17 162.203C1175.17 162.203 1174.26 162.433 1173.44 162.893C1172.64 163.353 1172 164.003 1171.52 164.843C1171.06 165.663 1170.83 166.643 1170.83 167.783C1170.83 168.903 1171.06 169.893 1171.52 170.753C1172 171.593 1172.64 172.243 1173.44 172.703C1174.26 173.163 1175.17 173.393 1176.17 173.393ZM1193.89 175.913C1192.29 175.913 1191.05 175.483 1190.17 174.623C1189.29 173.763 1188.85 172.533 1188.85 170.933V156.353H1191.73V170.813C1191.73 171.673 1191.94 172.333 1192.36 172.793C1192.8 173.253 1193.42 173.483 1194.22 173.483C1195.12 173.483 1195.87 173.233 1196.47 172.733L1197.37 174.803C1196.93 175.183 1196.4 175.463 1195.78 175.643C1195.18 175.823 1194.55 175.913 1193.89 175.913ZM1186.15 162.203V159.833H1196.29V162.203H1186.15ZM1205.41 175.913C1204.09 175.913 1202.83 175.733 1201.63 175.373C1200.45 175.013 1199.52 174.573 1198.84 174.053L1200.04 171.773C1200.72 172.233 1201.56 172.623 1202.56 172.943C1203.56 173.263 1204.58 173.423 1205.62 173.423C1206.96 173.423 1207.92 173.233 1208.5 172.853C1209.1 172.473 1209.4 171.943 1209.4 171.263C1209.4 170.763 1209.22 170.373 1208.86 170.093C1208.5 169.813 1208.02 169.603 1207.42 169.463C1206.84 169.323 1206.19 169.203 1205.47 169.103C1204.75 168.983 1204.03 168.843 1203.31 168.683C1202.59 168.503 1201.93 168.263 1201.33 167.963C1200.73 167.643 1200.25 167.213 1199.89 166.673C1199.53 166.113 1199.35 165.373 1199.35 164.453C1199.35 163.493 1199.62 162.653 1200.16 161.933C1200.7 161.213 1201.46 160.663 1202.44 160.283C1203.44 159.883 1204.62 159.683 1205.98 159.683C1207.02 159.683 1208.07 159.813 1209.13 160.073C1210.21 160.313 1211.09 160.663 1211.77 161.123L1210.54 163.403C1209.82 162.923 1209.07 162.593 1208.29 162.413C1207.51 162.233 1206.73 162.143 1205.95 162.143C1204.69 162.143 1203.75 162.353 1203.13 162.773C1202.51 163.173 1202.2 163.693 1202.2 164.333C1202.2 164.873 1202.38 165.293 1202.74 165.593C1203.12 165.873 1203.6 166.093 1204.18 166.253C1204.78 166.413 1205.44 166.553 1206.16 166.673C1206.88 166.773 1207.6 166.913 1208.32 167.093C1209.04 167.253 1209.69 167.483 1210.27 167.783C1210.87 168.083 1211.35 168.503 1211.71 169.043C1212.09 169.583 1212.28 170.303 1212.28 171.203C1212.28 172.163 1212 172.993 1211.44 173.693C1210.88 174.393 1210.09 174.943 1209.07 175.343C1208.05 175.723 1206.83 175.913 1205.41 175.913ZM1094.55 212.733L1088.64 196.833H1091.37L1096.62 211.233H1095.33L1100.79 196.833H1103.22L1108.56 211.233H1107.3L1112.67 196.833H1115.25L1109.31 212.733H1106.55L1101.54 199.593H1102.38L1097.31 212.733H1094.55ZM1124.81 212.913C1123.11 212.913 1121.61 212.563 1120.31 211.863C1119.03 211.163 1118.03 210.203 1117.31 208.983C1116.61 207.763 1116.26 206.363 1116.26 204.783C1116.26 203.203 1116.6 201.803 1117.28 200.583C1117.98 199.363 1118.93 198.413 1120.13 197.733C1121.35 197.033 1122.72 196.683 1124.24 196.683C1125.78 196.683 1127.14 197.023 1128.32 197.703C1129.5 198.383 1130.42 199.343 1131.08 200.583C1131.76 201.803 1132.1 203.233 1132.1 204.873C1132.1 204.993 1132.09 205.133 1132.07 205.293C1132.07 205.453 1132.06 205.603 1132.04 205.743H1118.51V203.673H1130.54L1129.37 204.393C1129.39 203.373 1129.18 202.463 1128.74 201.663C1128.3 200.863 1127.69 200.243 1126.91 199.803C1126.15 199.343 1125.26 199.113 1124.24 199.113C1123.24 199.113 1122.35 199.343 1121.57 199.803C1120.79 200.243 1120.18 200.873 1119.74 201.693C1119.3 202.493 1119.08 203.413 1119.08 204.453V204.933C1119.08 205.993 1119.32 206.943 1119.8 207.783C1120.3 208.603 1120.99 209.243 1121.87 209.703C1122.75 210.163 1123.76 210.393 1124.9 210.393C1125.84 210.393 1126.69 210.233 1127.45 209.913C1128.23 209.593 1128.91 209.113 1129.49 208.473L1131.08 210.333C1130.36 211.173 1129.46 211.813 1128.38 212.253C1127.32 212.693 1126.13 212.913 1124.81 212.913ZM1152.65 196.683C1153.95 196.683 1155.09 196.933 1156.07 197.433C1157.07 197.933 1157.85 198.693 1158.41 199.713C1158.97 200.733 1159.25 202.023 1159.25 203.583V212.733H1156.37V203.913C1156.37 202.373 1155.99 201.213 1155.23 200.433C1154.49 199.653 1153.44 199.263 1152.08 199.263C1151.06 199.263 1150.17 199.463 1149.41 199.863C1148.65 200.263 1148.06 200.853 1147.64 201.633C1147.24 202.413 1147.04 203.383 1147.04 204.543V212.733H1144.16V190.473H1147.04V201.123L1146.47 199.983C1146.99 198.943 1147.79 198.133 1148.87 197.553C1149.95 196.973 1151.21 196.683 1152.65 196.683ZM1174.45 212.733V209.373L1174.3 208.743V203.013C1174.3 201.793 1173.94 200.853 1173.22 200.193C1172.52 199.513 1171.46 199.173 1170.04 199.173C1169.1 199.173 1168.18 199.333 1167.28 199.653C1166.38 199.953 1165.62 200.363 1165 200.883L1163.8 198.723C1164.62 198.063 1165.6 197.563 1166.74 197.223C1167.9 196.863 1169.11 196.683 1170.37 196.683C1172.55 196.683 1174.23 197.213 1175.41 198.273C1176.59 199.333 1177.18 200.953 1177.18 203.133V212.733H1174.45ZM1169.23 212.913C1168.05 212.913 1167.01 212.713 1166.11 212.313C1165.23 211.913 1164.55 211.363 1164.07 210.663C1163.59 209.943 1163.35 209.133 1163.35 208.233C1163.35 207.373 1163.55 206.593 1163.95 205.893C1164.37 205.193 1165.04 204.633 1165.96 204.213C1166.9 203.793 1168.16 203.583 1169.74 203.583H1174.78V205.653H1169.86C1168.42 205.653 1167.45 205.893 1166.95 206.373C1166.45 206.853 1166.2 207.433 1166.2 208.113C1166.2 208.893 1166.51 209.523 1167.13 210.003C1167.75 210.463 1168.61 210.693 1169.71 210.693C1170.79 210.693 1171.73 210.453 1172.53 209.973C1173.35 209.493 1173.94 208.793 1174.3 207.873L1174.87 209.853C1174.49 210.793 1173.82 211.543 1172.86 212.103C1171.9 212.643 1170.69 212.913 1169.23 212.913ZM1186.39 212.733L1179.43 196.833H1182.43L1188.61 211.233H1187.17L1193.47 196.833H1196.29L1189.33 212.733H1186.39ZM1205.62 212.913C1203.92 212.913 1202.42 212.563 1201.12 211.863C1199.84 211.163 1198.84 210.203 1198.12 208.983C1197.42 207.763 1197.07 206.363 1197.07 204.783C1197.07 203.203 1197.41 201.803 1198.09 200.583C1198.79 199.363 1199.74 198.413 1200.94 197.733C1202.16 197.033 1203.53 196.683 1205.05 196.683C1206.59 196.683 1207.95 197.023 1209.13 197.703C1210.31 198.383 1211.23 199.343 1211.89 200.583C1212.57 201.803 1212.91 203.233 1212.91 204.873C1212.91 204.993 1212.9 205.133 1212.88 205.293C1212.88 205.453 1212.87 205.603 1212.85 205.743H1199.32V203.673H1211.35L1210.18 204.393C1210.2 203.373 1209.99 202.463 1209.55 201.663C1209.11 200.863 1208.5 200.243 1207.72 199.803C1206.96 199.343 1206.07 199.113 1205.05 199.113C1204.05 199.113 1203.16 199.343 1202.38 199.803C1201.6 200.243 1200.99 200.873 1200.55 201.693C1200.11 202.493 1199.89 203.413 1199.89 204.453V204.933C1199.89 205.993 1200.13 206.943 1200.61 207.783C1201.11 208.603 1201.8 209.243 1202.68 209.703C1203.56 210.163 1204.57 210.393 1205.71 210.393C1206.65 210.393 1207.5 210.233 1208.26 209.913C1209.04 209.593 1209.72 209.113 1210.3 208.473L1211.89 210.333C1211.17 211.173 1210.27 211.813 1209.19 212.253C1208.13 212.693 1206.94 212.913 1205.62 212.913Z" fill="#5F4F3A" fill-opacity="0.5"/>
<path d="M1475.46 116.114C1471.36 116.114 1467.8 115.26 1464.77 113.554C1461.79 111.847 1459.48 109.351 1457.86 106.066C1456.24 102.78 1455.43 98.727 1455.43 93.9057C1455.43 88.743 1456.39 84.3697 1458.31 80.7857C1460.27 77.2017 1462.96 74.471 1466.37 72.5937C1469.83 70.7164 1473.8 69.7777 1478.28 69.7777C1480.67 69.7777 1482.95 70.0337 1485.12 70.5457C1487.3 71.0577 1489.18 71.8257 1490.76 72.8497L1486.92 80.4657C1485.68 79.6124 1484.36 79.0364 1482.95 78.7377C1481.54 78.3964 1480.07 78.2257 1478.53 78.2257C1474.65 78.2257 1471.58 79.399 1469.32 81.7457C1467.06 84.0924 1465.92 87.5697 1465.92 92.1777C1465.92 92.9457 1465.92 93.799 1465.92 94.7377C1465.97 95.6764 1466.1 96.615 1466.31 97.5537L1463.43 94.8657C1464.24 93.2017 1465.28 91.815 1466.56 90.7057C1467.84 89.5537 1469.36 88.7004 1471.11 88.1457C1472.9 87.5484 1474.86 87.2497 1477 87.2497C1479.9 87.2497 1482.5 87.8257 1484.8 88.9777C1487.11 90.1297 1488.94 91.751 1490.31 93.8417C1491.72 95.9324 1492.42 98.3857 1492.42 101.202C1492.42 104.231 1491.65 106.876 1490.12 109.138C1488.62 111.356 1486.6 113.084 1484.04 114.322C1481.52 115.516 1478.66 116.114 1475.46 116.114ZM1474.88 108.37C1476.34 108.37 1477.62 108.114 1478.72 107.602C1479.88 107.047 1480.77 106.258 1481.41 105.234C1482.05 104.21 1482.37 103.036 1482.37 101.714C1482.37 99.6657 1481.67 98.0444 1480.26 96.8497C1478.9 95.6124 1477.06 94.9937 1474.76 94.9937C1473.22 94.9937 1471.88 95.2924 1470.72 95.8897C1469.57 96.4444 1468.66 97.2337 1467.97 98.2577C1467.33 99.239 1467.01 100.391 1467.01 101.714C1467.01 102.994 1467.33 104.146 1467.97 105.17C1468.61 106.151 1469.51 106.94 1470.66 107.538C1471.81 108.092 1473.22 108.37 1474.88 108.37ZM1511.92 69.7777C1516.06 69.7777 1519.62 70.631 1522.61 72.3377C1525.6 74.0444 1527.9 76.5404 1529.52 79.8257C1531.14 83.0684 1531.95 87.1217 1531.95 91.9857C1531.95 97.1484 1530.97 101.522 1529.01 105.106C1527.09 108.69 1524.42 111.42 1521.01 113.298C1517.6 115.175 1513.63 116.114 1509.11 116.114C1506.76 116.114 1504.5 115.858 1502.32 115.346C1500.15 114.834 1498.27 114.066 1496.69 113.042L1500.53 105.426C1501.77 106.279 1503.09 106.876 1504.5 107.218C1505.91 107.516 1507.38 107.666 1508.91 107.666C1512.75 107.666 1515.81 106.492 1518.07 104.146C1520.37 101.799 1521.52 98.3217 1521.52 93.7137C1521.52 92.9457 1521.5 92.0924 1521.46 91.1537C1521.42 90.215 1521.31 89.2764 1521.14 88.3377L1523.95 91.0257C1523.23 92.6897 1522.21 94.0977 1520.88 95.2497C1519.56 96.359 1518.02 97.2124 1516.27 97.8097C1514.53 98.3644 1512.56 98.6417 1510.39 98.6417C1507.53 98.6417 1504.93 98.0657 1502.58 96.9137C1500.27 95.7617 1498.42 94.1404 1497.01 92.0497C1495.65 89.959 1494.96 87.5057 1494.96 84.6897C1494.96 81.6177 1495.71 78.9724 1497.2 76.7537C1498.74 74.535 1500.79 72.8284 1503.35 71.6337C1505.95 70.3964 1508.81 69.7777 1511.92 69.7777ZM1512.56 77.5217C1511.07 77.5217 1509.77 77.799 1508.66 78.3537C1507.55 78.8657 1506.67 79.6337 1506.03 80.6577C1505.39 81.639 1505.07 82.8124 1505.07 84.1777C1505.07 86.2257 1505.76 87.8684 1507.12 89.1057C1508.53 90.3004 1510.39 90.8977 1512.69 90.8977C1514.18 90.8977 1515.51 90.6204 1516.66 90.0657C1517.85 89.4684 1518.77 88.6577 1519.41 87.6337C1520.05 86.6097 1520.37 85.4577 1520.37 84.1777C1520.37 82.8977 1520.05 81.767 1519.41 80.7857C1518.81 79.7617 1517.94 78.9724 1516.79 78.4177C1515.63 77.8204 1514.23 77.5217 1512.56 77.5217ZM1549.66 107.73V78.1617H1557.92V107.73H1549.66ZM1538.59 96.8497V89.0417H1569.05V96.8497H1538.59Z" fill="#5F4F3A"/>
<path d="M1438.29 175.733V157.343H1431.09V154.733H1448.46V157.343H1441.26V175.733H1438.29ZM1456.75 175.913C1455.05 175.913 1453.55 175.563 1452.25 174.863C1450.97 174.163 1449.97 173.203 1449.25 171.983C1448.55 170.763 1448.2 169.363 1448.2 167.783C1448.2 166.203 1448.54 164.803 1449.22 163.583C1449.92 162.363 1450.87 161.413 1452.07 160.733C1453.29 160.033 1454.66 159.683 1456.18 159.683C1457.72 159.683 1459.08 160.023 1460.26 160.703C1461.44 161.383 1462.36 162.343 1463.02 163.583C1463.7 164.803 1464.04 166.233 1464.04 167.873C1464.04 167.993 1464.03 168.133 1464.01 168.293C1464.01 168.453 1464 168.603 1463.98 168.743H1450.45V166.673H1462.48L1461.31 167.393C1461.33 166.373 1461.12 165.463 1460.68 164.663C1460.24 163.863 1459.63 163.243 1458.85 162.803C1458.09 162.343 1457.2 162.113 1456.18 162.113C1455.18 162.113 1454.29 162.343 1453.51 162.803C1452.73 163.243 1452.12 163.873 1451.68 164.693C1451.24 165.493 1451.02 166.413 1451.02 167.453V167.933C1451.02 168.993 1451.26 169.943 1451.74 170.783C1452.24 171.603 1452.93 172.243 1453.81 172.703C1454.69 173.163 1455.7 173.393 1456.84 173.393C1457.78 173.393 1458.63 173.233 1459.39 172.913C1460.17 172.593 1460.85 172.113 1461.43 171.473L1463.02 173.333C1462.3 174.173 1461.4 174.813 1460.32 175.253C1459.26 175.693 1458.07 175.913 1456.75 175.913ZM1470.38 171.893L1470.44 168.203L1479.59 159.833H1483.07L1476.05 166.733L1474.49 168.053L1470.38 171.893ZM1468.04 175.733V153.473H1470.92V175.733H1468.04ZM1480.19 175.733L1473.95 167.993L1475.81 165.683L1483.73 175.733H1480.19ZM1488.87 171.893L1488.93 168.203L1498.08 159.833H1501.56L1494.54 166.733L1492.98 168.053L1488.87 171.893ZM1486.53 175.733V153.473H1489.41V175.733H1486.53ZM1498.68 175.733L1492.44 167.993L1494.3 165.683L1502.22 175.733H1498.68ZM1511.18 175.913C1509.58 175.913 1508.16 175.563 1506.92 174.863C1505.68 174.163 1504.7 173.203 1503.98 171.983C1503.26 170.743 1502.9 169.343 1502.9 167.783C1502.9 166.203 1503.26 164.803 1503.98 163.583C1504.7 162.363 1505.68 161.413 1506.92 160.733C1508.16 160.033 1509.58 159.683 1511.18 159.683C1512.76 159.683 1514.17 160.033 1515.41 160.733C1516.67 161.413 1517.65 162.363 1518.35 163.583C1519.07 164.783 1519.43 166.183 1519.43 167.783C1519.43 169.363 1519.07 170.763 1518.35 171.983C1517.65 173.203 1516.67 174.163 1515.41 174.863C1514.17 175.563 1512.76 175.913 1511.18 175.913ZM1511.18 173.393C1512.2 173.393 1513.11 173.163 1513.91 172.703C1514.73 172.243 1515.37 171.593 1515.83 170.753C1516.29 169.893 1516.52 168.903 1516.52 167.783C1516.52 166.643 1516.29 165.663 1515.83 164.843C1515.37 164.003 1514.73 163.353 1513.91 162.893C1513.11 162.433 1512.2 162.203 1511.18 162.203C1510.16 162.203 1509.25 162.433 1508.45 162.893C1507.65 163.353 1507.01 164.003 1506.53 164.843C1506.05 165.663 1505.81 166.643 1505.81 167.783C1505.81 168.903 1506.05 169.893 1506.53 170.753C1507.01 171.593 1507.65 172.243 1508.45 172.703C1509.25 173.163 1510.16 173.393 1511.18 173.393ZM1543.3 159.683C1544.58 159.683 1545.71 159.933 1546.69 160.433C1547.67 160.933 1548.43 161.693 1548.97 162.713C1549.53 163.733 1549.81 165.023 1549.81 166.583V175.733H1546.93V166.913C1546.93 165.373 1546.57 164.213 1545.85 163.433C1545.13 162.653 1544.12 162.263 1542.82 162.263C1541.86 162.263 1541.02 162.463 1540.3 162.863C1539.58 163.263 1539.02 163.853 1538.62 164.633C1538.24 165.413 1538.05 166.383 1538.05 167.543V175.733H1535.17V166.913C1535.17 165.373 1534.81 164.213 1534.09 163.433C1533.39 162.653 1532.38 162.263 1531.06 162.263C1530.12 162.263 1529.29 162.463 1528.57 162.863C1527.85 163.263 1527.29 163.853 1526.89 164.633C1526.49 165.413 1526.29 166.383 1526.29 167.543V175.733H1523.41V159.833H1526.17V164.063L1525.72 162.983C1526.22 161.943 1526.99 161.133 1528.03 160.553C1529.07 159.973 1530.28 159.683 1531.66 159.683C1533.18 159.683 1534.49 160.063 1535.59 160.823C1536.69 161.563 1537.41 162.693 1537.75 164.213L1536.58 163.733C1537.06 162.513 1537.9 161.533 1539.1 160.793C1540.3 160.053 1541.7 159.683 1543.3 159.683ZM1561.55 175.733V173.693L1570.1 165.443C1570.86 164.723 1571.42 164.093 1571.78 163.553C1572.16 162.993 1572.41 162.483 1572.53 162.023C1572.67 161.543 1572.74 161.083 1572.74 160.643C1572.74 159.563 1572.36 158.713 1571.6 158.093C1570.84 157.473 1569.73 157.163 1568.27 157.163C1567.15 157.163 1566.14 157.353 1565.24 157.733C1564.34 158.093 1563.56 158.663 1562.9 159.443L1560.86 157.673C1561.66 156.653 1562.73 155.873 1564.07 155.333C1565.43 154.773 1566.92 154.493 1568.54 154.493C1570 154.493 1571.27 154.733 1572.35 155.213C1573.43 155.673 1574.26 156.343 1574.84 157.223C1575.44 158.103 1575.74 159.143 1575.74 160.343C1575.74 161.023 1575.65 161.693 1575.47 162.353C1575.29 163.013 1574.95 163.713 1574.45 164.453C1573.95 165.193 1573.23 166.023 1572.29 166.943L1564.67 174.293L1563.95 173.123H1576.64V175.733H1561.55ZM1578.77 175.733V173.693L1587.32 165.443C1588.08 164.723 1588.64 164.093 1589 163.553C1589.38 162.993 1589.63 162.483 1589.75 162.023C1589.89 161.543 1589.96 161.083 1589.96 160.643C1589.96 159.563 1589.58 158.713 1588.82 158.093C1588.06 157.473 1586.95 157.163 1585.49 157.163C1584.37 157.163 1583.36 157.353 1582.46 157.733C1581.56 158.093 1580.78 158.663 1580.12 159.443L1578.08 157.673C1578.88 156.653 1579.95 155.873 1581.29 155.333C1582.65 154.773 1584.14 154.493 1585.76 154.493C1587.22 154.493 1588.49 154.733 1589.57 155.213C1590.65 155.673 1591.48 156.343 1592.06 157.223C1592.66 158.103 1592.96 159.143 1592.96 160.343C1592.96 161.023 1592.87 161.693 1592.69 162.353C1592.51 163.013 1592.17 163.713 1591.67 164.453C1591.17 165.193 1590.45 166.023 1589.51 166.943L1581.89 174.293L1581.17 173.123H1593.86V175.733H1578.77ZM1481.41 212.913C1479.81 212.913 1478.39 212.563 1477.15 211.863C1475.91 211.163 1474.93 210.203 1474.21 208.983C1473.49 207.743 1473.13 206.343 1473.13 204.783C1473.13 203.203 1473.49 201.803 1474.21 200.583C1474.93 199.363 1475.91 198.413 1477.15 197.733C1478.39 197.033 1479.81 196.683 1481.41 196.683C1482.99 196.683 1484.4 197.033 1485.64 197.733C1486.9 198.413 1487.88 199.363 1488.58 200.583C1489.3 201.783 1489.66 203.183 1489.66 204.783C1489.66 206.363 1489.3 207.763 1488.58 208.983C1487.88 210.203 1486.9 211.163 1485.64 211.863C1484.4 212.563 1482.99 212.913 1481.41 212.913ZM1481.41 210.393C1482.43 210.393 1483.34 210.163 1484.14 209.703C1484.96 209.243 1485.6 208.593 1486.06 207.753C1486.52 206.893 1486.75 205.903 1486.75 204.783C1486.75 203.643 1486.52 202.663 1486.06 201.843C1485.6 201.003 1484.96 200.353 1484.14 199.893C1483.34 199.433 1482.43 199.203 1481.41 199.203C1480.39 199.203 1479.48 199.433 1478.68 199.893C1477.88 200.353 1477.24 201.003 1476.76 201.843C1476.28 202.663 1476.04 203.643 1476.04 204.783C1476.04 205.903 1476.28 206.893 1476.76 207.753C1477.24 208.593 1477.88 209.243 1478.68 209.703C1479.48 210.163 1480.39 210.393 1481.41 210.393ZM1493.65 212.733V196.833H1496.41V201.153L1496.14 200.073C1496.58 198.973 1497.32 198.133 1498.36 197.553C1499.4 196.973 1500.68 196.683 1502.2 196.683V199.473C1502.08 199.453 1501.96 199.443 1501.84 199.443C1501.74 199.443 1501.64 199.443 1501.54 199.443C1500 199.443 1498.78 199.903 1497.88 200.823C1496.98 201.743 1496.53 203.073 1496.53 204.813V212.733H1493.65ZM1512.17 212.913C1510.63 212.913 1509.25 212.573 1508.03 211.893C1506.83 211.213 1505.88 210.263 1505.18 209.043C1504.48 207.823 1504.13 206.403 1504.13 204.783C1504.13 203.163 1504.48 201.753 1505.18 200.553C1505.88 199.333 1506.83 198.383 1508.03 197.703C1509.25 197.023 1510.63 196.683 1512.17 196.683C1513.51 196.683 1514.72 196.983 1515.8 197.583C1516.88 198.183 1517.74 199.083 1518.38 200.283C1519.04 201.483 1519.37 202.983 1519.37 204.783C1519.37 206.583 1519.05 208.083 1518.41 209.283C1517.79 210.483 1516.94 211.393 1515.86 212.013C1514.78 212.613 1513.55 212.913 1512.17 212.913ZM1512.41 210.393C1513.41 210.393 1514.31 210.163 1515.11 209.703C1515.93 209.243 1516.57 208.593 1517.03 207.753C1517.51 206.893 1517.75 205.903 1517.75 204.783C1517.75 203.643 1517.51 202.663 1517.03 201.843C1516.57 201.003 1515.93 200.353 1515.11 199.893C1514.31 199.433 1513.41 199.203 1512.41 199.203C1511.39 199.203 1510.48 199.433 1509.68 199.893C1508.88 200.353 1508.24 201.003 1507.76 201.843C1507.28 202.663 1507.04 203.643 1507.04 204.783C1507.04 205.903 1507.28 206.893 1507.76 207.753C1508.24 208.593 1508.88 209.243 1509.68 209.703C1510.48 210.163 1511.39 210.393 1512.41 210.393ZM1517.84 212.733V208.443L1518.02 204.753L1517.72 201.063V190.473H1520.6V212.733H1517.84ZM1533.13 212.913C1531.43 212.913 1529.93 212.563 1528.63 211.863C1527.35 211.163 1526.35 210.203 1525.63 208.983C1524.93 207.763 1524.58 206.363 1524.58 204.783C1524.58 203.203 1524.92 201.803 1525.6 200.583C1526.3 199.363 1527.25 198.413 1528.45 197.733C1529.67 197.033 1531.04 196.683 1532.56 196.683C1534.1 196.683 1535.46 197.023 1536.64 197.703C1537.82 198.383 1538.74 199.343 1539.4 200.583C1540.08 201.803 1540.42 203.233 1540.42 204.873C1540.42 204.993 1540.41 205.133 1540.39 205.293C1540.39 205.453 1540.38 205.603 1540.36 205.743H1526.83V203.673H1538.86L1537.69 204.393C1537.71 203.373 1537.5 202.463 1537.06 201.663C1536.62 200.863 1536.01 200.243 1535.23 199.803C1534.47 199.343 1533.58 199.113 1532.56 199.113C1531.56 199.113 1530.67 199.343 1529.89 199.803C1529.11 200.243 1528.5 200.873 1528.06 201.693C1527.62 202.493 1527.4 203.413 1527.4 204.453V204.933C1527.4 205.993 1527.64 206.943 1528.12 207.783C1528.62 208.603 1529.31 209.243 1530.19 209.703C1531.07 210.163 1532.08 210.393 1533.22 210.393C1534.16 210.393 1535.01 210.233 1535.77 209.913C1536.55 209.593 1537.23 209.113 1537.81 208.473L1539.4 210.333C1538.68 211.173 1537.78 211.813 1536.7 212.253C1535.64 212.693 1534.45 212.913 1533.13 212.913ZM1544.42 212.733V196.833H1547.18V201.153L1546.91 200.073C1547.35 198.973 1548.09 198.133 1549.13 197.553C1550.17 196.973 1551.45 196.683 1552.97 196.683V199.473C1552.85 199.453 1552.73 199.443 1552.61 199.443C1552.51 199.443 1552.41 199.443 1552.31 199.443C1550.77 199.443 1549.55 199.903 1548.65 200.823C1547.75 201.743 1547.3 203.073 1547.3 204.813V212.733H1544.42Z" fill="#5F4F3A" fill-opacity="0.5"/>
<rect x="591.47" y="51.1724" width="4.35059" height="177.335" rx="2.17529" fill="#5F4F3A" fill-opacity="0.2"/>
<rect x="962.503" y="51.1724" width="4.35059" height="177.335" rx="2.17529" fill="#5F4F3A" fill-opacity="0.2"/>
<rect x="1333.54" y="51.1724" width="4.35059" height="177.335" rx="2.17529" fill="#5F4F3A" fill-opacity="0.2"/>
</svg>
