<svg width="430" height="933" viewBox="0 0 430 933" fill="none" xmlns="http://www.w3.org/2000/svg">
<g clip-path="url(#clip0_284_18)">
<rect width="430" height="932" transform="translate(0 0.411865)" fill="#FFE5A6"/>
<g clip-path="url(#clip1_284_18)">
<path d="M257.969 231.807L266.71 220.503C265.215 219.409 263.727 218.305 262.261 217.172C260.796 216.038 259.353 214.876 257.918 213.704L249.176 225.007L257.969 231.807ZM269.061 208.379C288.014 223.036 308.114 232.475 323.896 237.202C331.763 239.546 338.59 240.711 343.446 240.892C347.719 241.019 349.835 239.798 349.758 240.199L363.696 215.21C353.831 202.429 342.445 193.936 329.878 187.575L334.866 177.693C347.421 183.968 359.252 192.492 369.533 204.736L415.421 122.584C411.252 115.457 403.668 108.811 396.942 103.376L403.937 94.7343C409.43 99.1384 416.216 104.698 421.51 111.681L427.46 101.06C425.908 98.2205 422.483 93.464 418.702 89.3693C413.814 84.1836 407.907 79.304 406.34 78.4039L411.794 68.7267C416.204 71.2003 421.444 76.033 426.805 81.8186C429.298 84.4492 431.705 87.0909 433.727 89.8257L446.047 67.7377C446.116 65.5278 443.525 58.6838 437.215 50.9945C430.591 42.9053 420.844 33.8065 410.341 25.6848C399.839 17.563 388.581 10.4183 379.085 6.04155C370.056 1.86934 362.781 1.08263 360.659 1.70596L350.186 11.7167C354.403 13.0265 358.589 14.7804 362.548 16.8274C371.497 21.4061 379.269 27.1037 383.969 32.5336L375.659 39.8466C372.476 36.2918 365.295 30.7388 357.474 26.7203C351.725 23.7575 345.518 21.6896 340.463 21.0592L288.846 70.4447C318.926 80.2018 335.072 94.2491 351.025 107.133L344.03 115.774C326.747 101.784 311.827 88.3725 279.663 79.19L230.563 126.229C258.297 131.752 284.631 151.804 305.591 171.135L298.009 179.323C275.48 158.388 246.605 138.088 220.327 136.033L217.964 138.281C218.334 138.106 217.684 140.46 218.882 144.564C220.278 149.219 223.123 155.533 227.371 162.557C235.916 176.643 250.107 193.722 269.061 208.379ZM361.058 166.333C358.705 163.421 351.076 156.428 342.885 149.86C334.656 143.34 325.501 136.807 319.828 133.747L325.184 123.994C332.095 127.777 341.261 134.396 349.782 141.143C358.315 147.976 365.84 154.497 369.758 159.323L361.058 166.333ZM328.895 60.0429L330.776 54.7842L332.657 49.5255C350.558 55.9531 370.531 69.2911 381.985 82.4416L377.83 86.0982L373.675 89.7546C363.993 78.7547 344.486 65.6213 328.895 60.0429ZM421.5 20.3407L439.292 -2.66705L430.499 -9.46665L412.707 13.5411C414.21 14.6255 415.676 15.7588 417.141 16.892C418.607 18.0253 420.072 19.1586 421.5 20.3407Z" fill="#EDD395"/>
</g>
<g clip-path="url(#clip2_284_18)">
<path d="M28.2472 721.258L65.8138 741.909L34.0431 799.704L-3.52343 779.053L-9.87757 790.612L-1.20837 795.377C6.45568 799.59 12.1322 806.675 14.5724 815.074C17.0126 823.472 16.0167 832.496 11.8036 840.16C7.59056 847.824 0.505531 853.5 -7.89284 855.941C-16.2912 858.381 -25.315 857.385 -32.979 853.172L-41.6482 848.406L-67.0648 894.642L-84.4032 885.111L-58.9866 838.875L-67.6558 834.109C-75.3199 829.896 -80.9964 822.811 -83.4366 814.413C-85.8768 806.015 -84.8809 796.991 -80.6678 789.327C-76.4548 781.663 -69.3697 775.986 -60.9714 773.546C-52.573 771.106 -43.5492 772.102 -35.8852 776.315L-27.216 781.08L-20.8618 769.521L-58.4283 748.871L-26.6577 691.076L10.9089 711.727L17.263 700.168L8.5938 695.402C0.92975 691.189 -4.74677 684.104 -7.18699 675.706C-9.62721 667.307 -8.63124 658.284 -4.41819 650.62C-0.205131 642.956 6.8799 637.279 15.2783 634.839C23.6767 632.399 32.7004 633.395 40.3645 637.608L49.0337 642.373L55.3878 630.814L72.7262 640.346L66.3721 651.904L75.0413 656.67C82.7053 660.883 88.3818 667.968 90.822 676.367C93.2623 684.765 92.2663 693.789 88.0532 701.453C83.8402 709.117 76.7552 714.793 68.3568 717.234C59.9584 719.674 50.9346 718.678 43.2706 714.465L34.6014 709.699L28.2472 721.258ZM150.191 773.24L158.86 778.006C166.524 782.219 175.548 783.215 183.946 780.775C192.344 778.335 199.429 772.658 203.643 764.994C207.856 757.33 208.852 748.306 206.411 739.908C203.971 731.51 198.295 724.424 190.631 720.211L181.961 715.446L188.315 703.887L170.977 694.356L164.623 705.915L155.954 701.149C148.29 696.936 139.266 695.94 130.868 698.38C122.469 700.82 115.384 706.497 111.171 714.161C106.958 721.825 105.962 730.849 108.402 739.247C110.843 747.646 116.519 754.731 124.183 758.944L132.852 763.709L126.498 775.268L88.9316 754.617L57.1609 812.412L94.7275 833.063L88.3733 844.622L79.7041 839.856C72.0401 835.643 63.0163 834.647 54.6179 837.087C46.2196 839.528 39.1345 845.204 34.9215 852.868C30.7084 860.532 29.7125 869.556 32.1527 877.954C34.5929 886.353 40.2694 893.438 47.9335 897.651L56.6026 902.416L31.1861 948.652L48.5245 958.183L73.941 911.948L82.6102 916.713C90.2743 920.926 99.2981 921.922 107.696 919.482C116.095 917.042 123.18 911.365 127.393 903.701C131.606 896.037 132.602 887.013 130.162 878.615C127.721 870.217 122.045 863.132 114.381 858.919L105.712 854.153L112.066 842.594L149.632 863.245L181.403 805.45L143.837 784.799L150.191 773.24Z" fill="#EDD395"/>
</g>
</g>
<defs>
<clipPath id="clip0_284_18">
<rect width="430" height="932" fill="white" transform="translate(0 0.411865)"/>
</clipPath>
<clipPath id="clip1_284_18">
<rect width="316.165" height="316.165" fill="white" transform="translate(372.581 332.928) rotate(-142.285)"/>
</clipPath>
<clipPath id="clip2_284_18">
<rect width="316.567" height="316.567" fill="white" transform="translate(-10.501 579.542) rotate(28.7983)"/>
</clipPath>
</defs>
</svg>
